<?xml version="1.0" standalone="no"?>
<!DOCTYPE svg PUBLIC "-//W3C//DTD SVG 20010904//EN"
 "http://www.w3.org/TR/2001/REC-SVG-20010904/DTD/svg10.dtd">
<svg version="1.0" xmlns="http://www.w3.org/2000/svg"
 width="260.000000pt" height="260.000000pt" viewBox="0 0 260.000000 260.000000"
 preserveAspectRatio="xMidYMid meet">
<metadata>
Created by potrace 1.14, written by Peter Selinger 2001-2017
</metadata>
<g transform="translate(0.000000,260.000000) scale(0.100000,-0.100000)"
fill="#000000" stroke="none">
<path d="M1127 2396 c-4 -10 -12 -14 -19 -10 -8 5 -7 0 2 -11 9 -11 10 -16 3
-11 -7 4 -13 2 -13 -4 0 -6 -11 -15 -25 -20 -14 -5 -25 -16 -25 -24 0 -8 -5
-18 -12 -22 -7 -5 -8 -3 -3 6 5 9 4 11 -3 6 -7 -4 -12 -14 -12 -22 0 -8 -7
-17 -15 -20 -8 -4 -12 -11 -8 -18 4 -6 -1 -5 -10 3 -9 7 -18 11 -18 7 -1 -3
-2 -12 -3 -18 -1 -7 -8 -12 -15 -10 -7 1 -10 -2 -6 -8 3 -6 12 -7 18 -3 7 4 6
0 -2 -10 -11 -14 -11 -17 0 -17 11 0 11 -2 -1 -10 -13 -9 -13 -10 0 -10 13 0
13 -1 0 -10 -13 -9 -13 -10 0 -10 13 0 13 -1 0 -10 -13 -9 -13 -10 0 -10 9 0
11 -3 5 -8 -14 -10 -17 -32 -4 -32 8 0 7 -6 -2 -17 -10 -11 -10 -14 -1 -9 7 4
12 2 12 -6 0 -7 10 -19 23 -27 l22 -14 -19 22 c-17 18 -17 21 -3 15 9 -3 18
-10 18 -15 1 -5 2 -15 3 -21 1 -7 -3 -16 -9 -20 -6 -5 -4 -8 5 -8 13 0 13 -1
0 -10 -11 -7 -11 -10 -2 -10 7 0 11 -4 8 -9 -3 -5 1 -12 10 -15 10 -4 13 -2 8
7 -4 6 3 1 16 -12 17 -17 19 -25 11 -31 -9 -5 -8 -9 4 -13 9 -4 13 -3 10 3 -3
5 4 8 15 7 12 -1 16 -5 11 -10 -15 -15 24 -51 46 -43 9 4 14 4 11 0 -4 -4 -2
-16 4 -27 9 -17 8 -19 -6 -14 -9 4 -15 2 -13 -5 3 -15 -25 -17 -35 -3 -5 6 -8
4 -8 -5 0 -13 -1 -13 -10 0 -7 11 -10 11 -10 2 0 -7 -4 -11 -9 -8 -5 3 -12 -1
-15 -10 -3 -8 -2 -12 4 -9 6 3 7 -1 4 -9 -3 -9 -10 -13 -15 -10 -5 3 -9 0 -9
-5 0 -6 -5 -11 -11 -11 -5 0 -7 6 -3 13 5 9 4 9 -5 1 -7 -6 -13 -20 -14 -32
-1 -14 -7 -19 -19 -17 -11 2 -16 0 -12 -6 7 -12 -34 -59 -52 -59 -6 0 -15 -12
-19 -27 -4 -19 -9 -23 -14 -14 -7 11 -13 11 -27 1 -15 -9 -16 -10 -2 -6 12 3
15 1 11 -10 -3 -7 -10 -14 -15 -14 -7 0 -7 -5 0 -13 12 -14 5 -60 -8 -52 -12
8 -41 -6 -34 -16 3 -5 -1 -9 -8 -9 -9 0 -9 -3 2 -10 12 -8 12 -10 1 -10 -11 0
-11 -3 -1 -15 8 -10 9 -15 1 -15 -7 0 -8 -8 -1 -26 6 -14 6 -23 1 -20 -11 7
-9 -13 2 -31 5 -7 4 -13 -2 -13 -6 0 -8 -6 -5 -13 3 -8 -3 -20 -12 -28 -10 -8
-15 -9 -11 -3 3 6 0 11 -7 11 -8 0 -12 -6 -9 -14 3 -7 -1 -13 -8 -13 -11 0
-11 -3 1 -10 8 -5 10 -10 4 -10 -14 0 -14 -30 0 -30 6 0 4 -5 -4 -10 -13 -9
-13 -10 0 -10 13 0 13 -1 0 -10 -13 -9 -13 -10 0 -10 13 0 13 -1 0 -10 -11 -7
-11 -10 -2 -10 9 0 10 -5 2 -19 -7 -14 -6 -21 2 -23 7 -3 -2 -13 -19 -23 -18
-10 -30 -22 -27 -27 3 -4 1 -8 -4 -8 -5 0 -8 -12 -6 -27 3 -28 -12 -57 -25
-48 -4 2 -15 -9 -24 -25 -12 -20 -23 -28 -38 -25 -17 4 -19 2 -9 -10 10 -11
10 -15 1 -15 -7 0 -9 -5 -5 -12 4 -7 4 -10 -1 -6 -4 4 -14 3 -22 -3 -10 -9
-13 -8 -13 2 0 10 -3 10 -12 1 -7 -7 -17 -12 -22 -12 -6 0 -4 5 4 10 9 6 10
10 3 10 -6 0 -15 -5 -19 -11 -4 -8 -9 -7 -15 2 -8 12 -11 12 -18 -1 -9 -12
-11 -12 -17 3 -3 9 -11 14 -16 11 -6 -4 -8 1 -4 14 5 16 3 21 -11 21 -10 0
-35 1 -56 3 -21 2 -41 0 -43 -4 -3 -5 -14 -3 -25 2 -14 8 -19 7 -19 -2 0 -9
-3 -9 -10 2 -6 10 -10 11 -10 3 0 -9 -7 -10 -26 -3 -23 9 -25 8 -20 -6 5 -14
4 -15 -9 -4 -13 10 -15 9 -15 -8 0 -11 -7 -25 -16 -33 -13 -10 -17 -10 -25 2
-6 10 -11 11 -17 3 -4 -6 -15 -10 -25 -8 -12 1 -17 -5 -17 -21 0 -13 -5 -27
-12 -31 -7 -4 -8 -3 -4 4 4 7 2 12 -3 12 -6 0 -11 -5 -11 -11 0 -5 -4 -8 -9
-4 -6 3 -8 -4 -6 -16 3 -15 0 -19 -10 -15 -9 3 -15 0 -15 -9 0 -9 -8 -12 -21
-10 -17 4 -19 2 -9 -10 9 -11 9 -15 1 -15 -9 0 -9 -5 0 -21 7 -15 8 -19 0 -15
-7 5 -9 1 -5 -8 3 -9 11 -16 18 -16 6 0 4 -5 -4 -11 -12 -8 -10 -9 8 -4 18 5
22 2 22 -14 0 -19 5 -23 26 -20 3 0 12 -8 21 -18 8 -10 11 -12 7 -4 -4 9 -3
12 4 8 5 -4 8 -16 5 -26 -3 -10 1 -22 8 -26 8 -5 10 -4 5 3 -10 16 2 15 19 -2
8 -7 11 -16 8 -20 -4 -3 -1 -6 6 -6 7 0 11 -7 8 -14 -4 -10 -1 -13 9 -9 19 7
46 -16 40 -34 -3 -8 -2 -12 3 -8 5 3 11 0 13 -7 3 -7 9 -8 18 -3 15 9 54 15
45 7 -2 -2 3 -11 11 -19 8 -8 12 -19 8 -24 -3 -5 0 -8 8 -7 7 2 12 -3 10 -10
-1 -8 2 -11 8 -7 6 3 8 10 6 13 -6 10 42 7 51 -3 5 -4 1 -5 -7 -1 -9 5 -8 2 2
-7 10 -8 16 -17 13 -20 -3 -4 -2 -5 2 -2 10 8 33 -16 27 -29 -3 -6 2 -2 10 8
10 13 16 15 16 7 0 -11 3 -11 15 -1 8 7 15 8 15 3 0 -5 9 -9 20 -10 13 -1 18
2 14 9 -5 7 -2 8 7 3 19 -13 49 -13 49 -2 0 6 9 0 20 -13 11 -13 20 -26 20
-30 0 -4 9 -10 20 -13 11 -3 20 0 20 6 0 7 5 5 10 -3 7 -11 10 -11 10 -2 0 10
5 10 20 2 11 -6 20 -7 20 -3 0 9 94 8 109 -2 6 -3 11 0 11 7 0 9 3 9 10 -2 7
-11 10 -11 10 -2 0 10 5 10 20 2 15 -8 20 -8 20 2 0 9 3 9 10 -2 7 -11 10 -11
10 -2 0 10 5 10 20 2 15 -8 20 -8 20 2 0 9 3 9 10 -2 9 -13 10 -13 10 0 0 13
1 13 10 0 9 -13 10 -13 10 0 0 13 1 13 10 0 9 -13 10 -13 10 0 0 9 3 11 8 5 8
-11 93 -14 85 -2 -2 4 1 7 6 7 6 0 11 -6 11 -12 0 -9 4 -8 10 2 9 13 10 13 10
0 0 -13 1 -13 10 0 9 13 10 13 10 0 0 -13 1 -13 10 0 5 8 10 10 10 4 0 -7 15
-9 45 -4 24 4 42 3 39 -2 -3 -4 0 -8 5 -8 6 0 11 5 11 10 0 6 5 10 11 10 5 0
8 -4 4 -9 -3 -6 6 -6 24 -1 19 5 33 4 40 -3 8 -8 11 -7 11 4 0 12 2 12 10 -1
7 -11 10 -11 10 -2 0 10 5 10 20 2 11 -6 20 -7 20 -3 0 9 94 8 109 -2 6 -3 11
0 11 7 0 9 3 9 10 -2 7 -11 10 -11 10 -2 0 10 5 10 20 2 15 -8 20 -8 20 2 0 9
3 9 10 -2 7 -11 10 -11 10 -2 0 10 5 10 20 2 11 -6 20 -7 20 -3 0 9 94 8 109
-2 6 -3 11 0 11 7 0 9 3 9 10 -2 7 -11 10 -11 10 -2 0 10 5 10 20 2 15 -8 20
-8 20 2 0 9 3 9 10 -2 8 -13 10 -12 10 3 0 17 2 17 15 3 9 -9 23 -12 33 -9 20
8 42 35 36 45 -2 4 1 10 7 14 8 4 9 3 5 -4 -9 -14 -5 -15 28 -2 17 6 27 6 32
-1 4 -8 9 -7 15 2 7 11 9 11 9 1 0 -10 7 -9 29 4 17 10 28 21 25 25 -6 11 9
19 45 23 17 2 28 -1 25 -5 -3 -5 0 -9 5 -9 6 0 11 5 11 11 0 5 4 7 10 4 17
-11 51 -14 45 -5 -9 15 12 47 35 53 12 3 18 1 14 -5 -4 -6 3 -5 15 1 16 9 21
9 21 0 0 -12 14 -4 16 9 3 25 22 54 28 44 11 -18 25 -14 22 5 -3 18 28 58 45
58 5 0 10 5 11 10 3 18 23 33 39 30 11 -2 15 2 12 13 -2 11 5 21 19 27 20 9
23 18 24 63 1 46 0 51 -14 40 -13 -11 -14 -11 -7 1 6 11 4 13 -9 8 -9 -4 -15
-3 -12 2 3 5 -1 14 -9 21 -7 6 -11 19 -8 28 4 14 3 14 -5 3 -9 -12 -12 -12
-25 0 -7 8 -13 21 -12 29 2 10 -7 15 -26 15 -15 1 -26 -2 -23 -6 5 -9 -17 -6
-34 5 -7 4 -11 14 -8 22 4 11 -6 19 -16 12 -2 -1 -13 4 -25 11 -18 9 -23 9
-23 -1 0 -9 -3 -9 -10 2 -5 8 -10 10 -10 4 0 -8 -11 -9 -35 -4 -22 5 -35 4
-35 -2 0 -6 -6 -5 -15 2 -12 10 -15 10 -15 -1 0 -12 -2 -12 -9 -1 -6 11 -10
10 -15 -4 -5 -13 -9 -15 -18 -6 -17 17 -28 15 -28 -7 0 -12 -11 -23 -30 -30
-22 -7 -29 -7 -24 1 5 7 2 8 -6 3 -8 -5 -30 -9 -51 -10 -33 -1 -36 1 -35 24 1
14 -4 26 -11 26 -14 0 -42 24 -61 51 -7 10 -10 12 -7 4 5 -10 2 -10 -8 2 -8
10 -17 14 -21 11 -4 -4 -3 5 3 20 7 18 7 27 0 27 -6 0 -6 7 1 19 9 17 7 19
-10 16 -11 -2 -20 1 -20 6 0 6 -5 7 -11 3 -8 -5 -10 1 -7 20 3 14 2 29 -3 32
-5 2 -5 15 -1 27 6 19 7 46 3 110 0 10 -5 15 -11 12 -5 -3 -18 -1 -27 4 -10 6
-13 11 -8 11 6 0 3 5 -5 10 -13 9 -13 10 0 10 13 0 13 1 0 10 -13 9 -13 10 0
10 13 0 13 1 0 10 -11 7 -11 10 -2 10 10 0 10 5 1 21 -8 15 -8 19 0 15 12 -8
15 6 4 18 -10 10 -11 46 -1 40 4 -3 8 -1 8 4 0 13 -29 24 -42 15 -7 -3 -8 -1
-4 5 4 7 3 12 -2 12 -5 0 -9 6 -9 13 0 7 -3 25 -7 41 -5 21 -4 26 6 20 11 -6
11 -4 0 7 -7 8 -20 14 -30 14 -9 0 -16 5 -16 10 1 6 -10 21 -24 35 -16 16 -20
18 -11 5 13 -18 13 -19 -3 -6 -10 7 -18 21 -18 31 0 10 -7 21 -16 24 -8 3 -12
2 -9 -4 3 -6 1 -10 -4 -10 -6 0 -11 7 -11 15 0 9 -7 18 -15 21 -8 4 -13 10
-10 14 3 5 -4 11 -15 15 -11 3 -20 13 -20 21 0 13 -12 18 -32 15 -5 0 -8 5 -8
11 0 9 -4 8 -10 -2 -9 -13 -10 -13 -10 0 0 10 -3 11 -8 3 -5 -8 -12 -8 -26 3
-18 13 -18 14 -2 20 14 5 15 9 4 15 -9 6 -7 9 10 9 13 0 22 6 22 15 0 8 5 15
11 15 5 0 7 5 3 12 -4 6 -3 8 3 5 12 -8 56 36 46 46 -3 4 6 7 21 7 15 0 25 4
21 9 -3 5 -1 12 5 16 6 4 7 11 4 17 -4 7 -2 8 4 4 7 -4 21 -1 33 7 15 11 17
16 7 20 -10 4 -10 6 1 6 11 1 11 4 0 18 -10 11 -10 14 -1 9 15 -9 15 -1 1 26
-8 15 -8 19 0 14 6 -4 11 -3 11 3 0 5 -6 12 -12 14 -10 4 -9 6 1 6 11 1 11 4
1 16 -10 12 -10 15 0 15 9 0 9 4 -1 17 -10 11 -10 14 -1 9 6 -4 12 -3 12 3 0
5 -5 13 -11 17 -8 5 -8 9 1 14 9 6 7 13 -8 28 -14 14 -22 17 -25 9 -2 -7 -7 2
-11 20 -6 24 -11 30 -23 26 -12 -5 -14 -3 -8 7 6 10 4 12 -9 7 -9 -4 -14 -3
-11 2 3 5 0 13 -6 16 -5 4 -8 13 -6 19 3 7 -1 13 -9 13 -7 0 -10 -5 -7 -11 3
-6 -4 -1 -16 11 -23 24 -28 38 -8 27 8 -6 8 -3 -2 9 -13 17 -35 18 -58 4 -8
-5 -13 -3 -13 5 0 9 -3 9 -10 -2 -6 -10 -10 -11 -10 -2 0 6 -5 12 -11 12 -5 0
-7 -6 -3 -12 6 -10 4 -10 -8 0 -12 10 -18 10 -23 1 -6 -8 -10 -7 -16 2 -7 11
-9 11 -9 -1 0 -13 -1 -13 -10 0 -9 13 -11 13 -20 0 -8 -12 -10 -12 -10 -1 0
11 -3 11 -15 1 -12 -10 -15 -10 -15 1 0 11 -2 11 -10 -1 -9 -13 -10 -13 -10 0
0 13 -1 13 -10 0 -9 -13 -10 -13 -10 0 0 12 -2 13 -9 1 -7 -11 -9 -11 -14 0
-5 12 -7 12 -15 0 -8 -11 -10 -11 -14 0 -3 9 -6 8 -11 -5z m177 -118 c-3 -4 0
-8 6 -8 6 0 9 -4 6 -9 -3 -5 1 -11 9 -15 8 -3 17 -2 19 3 3 4 19 6 36 3 17 -2
29 -7 26 -10 -3 -2 -1 -13 4 -23 7 -11 6 -19 -1 -21 -6 -2 6 -20 26 -40 31
-31 35 -39 25 -55 -11 -17 -11 -17 -5 1 6 19 5 19 -13 3 -10 -9 -24 -17 -32
-17 -10 0 -10 -3 0 -15 10 -12 10 -15 -1 -16 -12 0 -12 -1 0 -6 11 -5 11 -7 0
-14 -10 -6 -11 -9 -1 -9 8 0 6 -6 -5 -18 -12 -12 -22 -16 -30 -10 -7 6 -14 4
-19 -3 -4 -8 -3 -9 4 -5 17 10 15 0 -4 -30 -10 -14 -23 -23 -31 -20 -8 3 -12
2 -8 -3 3 -5 -1 -16 -9 -24 -8 -8 -12 -18 -8 -23 4 -4 -4 -1 -17 7 -13 8 -25
23 -27 33 -1 10 -8 24 -14 30 -8 8 -9 6 -4 -9 6 -17 4 -16 -17 5 -13 14 -20
28 -16 31 5 4 4 9 -1 13 -6 3 -13 2 -17 -4 -9 -15 -25 -2 -18 15 3 9 -1 15 -8
15 -11 0 -11 3 1 10 13 9 13 10 0 10 -13 0 -13 1 0 10 10 6 11 10 3 10 -7 0
-12 6 -10 13 1 6 -6 11 -15 11 -10 -1 -15 2 -12 7 3 5 0 9 -7 9 -7 0 -9 10 -7
25 3 13 1 22 -3 19 -5 -3 -9 0 -9 5 0 6 5 11 11 11 5 0 8 4 5 8 -2 4 -1 14 5
22 6 10 9 11 9 3 0 -7 5 -13 11 -13 6 0 9 7 6 14 -4 10 -1 13 8 10 10 -4 13 0
10 15 -4 23 10 37 20 21 5 -8 12 -7 23 2 12 10 14 10 8 1 -10 -18 2 -16 21 2
8 8 18 13 23 10 5 -3 7 3 6 12 -4 20 25 36 36 20 4 -6 4 -15 2 -19z m-20 -689
c27 4 34 -1 29 -19 -7 -25 15 -80 32 -80 7 0 16 -7 19 -16 4 -10 2 -13 -7 -8
-8 5 -7 2 2 -9 10 -13 10 -17 1 -17 -9 0 -9 -4 1 -17 12 -15 12 -16 -1 -8 -13
8 -13 7 -1 -8 10 -13 10 -17 1 -17 -9 0 -9 -4 1 -17 12 -14 12 -16 -1 -9 -8 4
-4 -2 10 -13 14 -11 31 -21 37 -21 9 0 10 -7 3 -24 -5 -15 -5 -27 3 -35 7 -7
7 -11 1 -11 -6 0 -11 -7 -11 -15 0 -8 5 -15 11 -15 6 0 4 -5 -4 -10 -13 -8
-12 -10 3 -10 11 0 15 -4 11 -12 -5 -7 -3 -8 5 -4 18 11 43 -25 29 -41 -7 -9
-7 -13 2 -13 10 0 10 -3 0 -15 -10 -12 -10 -15 0 -15 10 0 10 -3 1 -14 -7 -8
-8 -17 -3 -20 8 -5 9 -68 2 -86 -1 -3 -3 -12 -4 -20 0 -8 -7 -14 -13 -12 -7 1
-13 -3 -13 -9 0 -5 -5 -7 -12 -3 -8 5 -9 2 -5 -9 4 -10 2 -17 -5 -17 -7 0 -6
-5 2 -15 8 -10 9 -15 1 -15 -7 0 -8 -8 -1 -25 7 -18 6 -25 -3 -26 -9 0 -9 -2
1 -6 6 -2 12 -10 12 -16 0 -5 -3 -8 -6 -4 -4 3 -14 -2 -23 -11 -10 -11 -12
-12 -6 -2 7 11 4 11 -11 -3 -21 -18 -28 -47 -11 -47 5 0 3 -8 -4 -17 -9 -11
-10 -14 -2 -9 9 5 11 2 7 -8 -3 -9 -12 -12 -21 -9 -10 4 -14 2 -10 -4 3 -5 0
-10 -8 -10 -8 0 -15 5 -15 11 0 6 -5 4 -10 -4 -9 -13 -10 -13 -10 0 0 13 -1
13 -10 0 -5 -8 -10 -10 -10 -4 0 14 -31 14 -48 1 -9 -7 -11 -5 -6 8 5 12 4 16
-4 11 -7 -4 -8 2 -2 24 5 19 5 32 -2 36 -6 4 -5 10 3 15 10 6 5 8 -14 5 -15
-3 -25 -1 -22 5 4 5 -2 9 -12 10 -16 0 -16 1 2 9 19 8 19 9 1 9 -14 1 -16 4
-7 14 6 8 8 17 4 21 -10 10 -13 37 -3 31 4 -3 7 6 6 19 0 13 -4 22 -8 19 -5
-2 -8 4 -8 14 0 15 -2 16 -10 3 -8 -13 -10 -13 -10 2 0 9 -5 18 -11 20 -8 3
-11 32 -10 88 4 139 3 135 29 134 17 -1 20 2 12 11 -8 10 -8 15 1 21 8 5 9 3
4 -6 -5 -9 -4 -11 3 -6 8 5 9 13 2 25 -6 12 -5 22 3 30 9 9 8 14 -3 21 -13 9
-13 10 0 10 13 0 13 1 0 10 -12 8 -12 10 -1 10 11 0 11 3 1 15 -10 12 -8 14 9
10 12 -2 21 0 21 6 0 5 6 9 13 9 16 0 17 41 2 52 -6 5 -4 8 5 8 13 0 13 1 0
10 -10 6 -11 10 -3 10 9 0 10 7 3 26 -7 17 -7 23 0 19 6 -3 13 1 16 10 5 11
10 13 19 5 11 -9 12 -6 8 11 -4 15 -3 20 6 15 14 -9 11 16 -4 26 -6 5 -6 11 2
19 6 6 9 19 6 28 -4 12 -3 13 5 3 5 -8 12 -13 16 -13z m121 -247 c-3 -3 -11 0
-18 7 -9 10 -8 11 6 5 10 -3 15 -9 12 -12z m-441 -164 c8 -6 6 -11 -4 -18 -10
-6 -11 -10 -2 -10 14 0 12 -21 -3 -32 -6 -5 -5 -8 4 -8 10 0 11 -3 2 -14 -9
-11 -9 -16 0 -21 8 -6 7 -10 -2 -16 -11 -7 -11 -9 1 -9 13 0 13 -1 0 -10 -13
-9 -13 -10 0 -10 13 0 13 -1 0 -10 -12 -8 -12 -10 -1 -10 10 0 11 -3 2 -14 -9
-10 -9 -16 -1 -21 8 -5 8 -11 -1 -21 -9 -11 -8 -14 2 -14 12 0 12 -2 0 -9 -9
-6 -10 -11 -2 -15 6 -4 8 -13 4 -19 -11 -18 -12 -38 -2 -31 5 3 9 -3 9 -13 0
-15 2 -16 10 -3 8 12 10 12 10 -5 0 -15 2 -17 9 -6 6 9 10 4 13 -18 3 -18 1
-34 -5 -38 -5 -3 -7 -14 -4 -24 4 -16 2 -17 -14 -8 -14 7 -19 6 -19 -2 0 -8
-4 -8 -15 1 -12 10 -15 10 -15 -1 -1 -9 -8 -5 -20 10 -11 12 -18 27 -15 31 3
5 1 11 -5 15 -5 3 -10 1 -10 -6 0 -8 -5 -7 -17 2 -15 12 -16 12 -8 -1 6 -12 5
-13 -6 -2 -16 15 -33 16 -23 0 4 -7 3 -8 -4 -4 -7 4 -12 14 -12 22 0 8 -4 12
-10 9 -5 -3 -7 0 -4 8 3 8 -2 17 -11 21 -9 3 -13 2 -10 -4 3 -6 1 -10 -4 -10
-6 0 -11 7 -11 15 0 8 -6 15 -12 16 -10 0 -10 2 0 6 6 2 10 9 7 13 -3 5 0 12
6 16 8 4 9 3 5 -4 -10 -17 3 -15 20 3 9 8 12 20 8 26 -4 8 -3 9 4 5 7 -4 12
-2 12 4 0 6 3 9 8 7 4 -3 15 6 25 19 11 15 13 24 6 24 -8 0 -7 5 2 17 12 15
12 16 -1 8 -12 -7 -13 -6 -3 7 7 8 9 19 5 23 -4 5 -2 5 5 1 15 -8 57 31 43 39
-7 4 -6 13 0 26 6 10 7 19 2 19 -4 0 -8 9 -8 20 0 11 4 20 8 20 4 0 7 6 6 13
-2 6 3 11 10 10 6 -2 12 3 13 10 0 7 3 6 6 -3 3 -8 11 -18 17 -22z m687 14 c9
2 14 -8 14 -34 0 -20 -3 -34 -7 -32 -5 3 -8 0 -8 -5 0 -6 4 -11 10 -11 11 0 9
-28 -3 -47 -6 -9 -3 -11 8 -7 25 10 47 -16 43 -51 -1 -20 4 -39 15 -49 12 -13
17 -14 18 -4 0 15 22 -30 28 -58 0 -4 7 -2 14 4 9 8 17 8 27 0 12 -8 11 -9 -5
-4 -20 6 -20 6 -1 -9 12 -9 15 -15 7 -15 -7 0 -11 -6 -8 -14 4 -9 -2 -12 -20
-10 -18 2 -23 -2 -19 -12 3 -8 1 -14 -5 -14 -6 0 -7 -4 -4 -10 4 -6 -1 -7 -11
-3 -10 4 -15 2 -11 -3 3 -6 -5 -10 -19 -10 -13 0 -24 5 -24 11 0 5 -7 2 -14
-7 -7 -10 -17 -14 -21 -10 -5 4 -5 1 -1 -5 11 -20 -3 -36 -20 -22 -12 9 -13 9
-9 -3 4 -11 0 -14 -17 -13 -13 2 -22 8 -20 15 2 10 -1 10 -14 -1 -12 -9 -15
-9 -10 -1 4 7 2 12 -6 12 -9 0 -9 3 2 10 13 9 13 10 0 10 -12 0 -12 2 -1 9 9
6 10 11 3 15 -6 4 -8 14 -5 22 5 13 7 13 14 2 7 -10 9 -10 9 0 0 6 7 12 16 12
8 0 12 5 9 10 -3 6 -2 10 3 10 10 0 9 30 -2 48 -4 7 -2 12 5 12 8 0 7 5 -2 17
-10 11 -10 14 -1 9 6 -4 12 -3 12 3 0 5 -5 13 -10 16 -8 5 -7 11 1 21 9 11 8
14 -2 14 -11 0 -11 2 1 10 9 6 10 10 3 10 -8 0 -9 9 -3 30 6 21 5 30 -3 30 -7
0 -6 4 3 10 13 9 13 10 0 10 -13 0 -13 1 0 10 8 5 10 10 4 10 -11 0 -11 19 1
58 5 15 10 19 15 12 4 -6 13 -10 21 -8z m-1375 -442 c-4 8 0 6 8 -4 14 -18 16
-18 16 -3 0 14 4 16 19 7 24 -13 34 -13 26 -1 -6 10 27 7 45 -4 6 -3 10 0 10
7 0 10 2 10 9 -1 6 -9 11 -10 15 -2 4 6 13 11 19 11 7 0 6 -4 -3 -10 -12 -8
-10 -10 10 -10 15 0 20 -3 13 -8 -8 -5 -8 -12 3 -26 10 -15 14 -16 15 -5 0 10
2 10 6 1 2 -6 9 -10 14 -7 5 4 6 -1 3 -9 -3 -9 -1 -16 6 -16 6 0 8 -4 5 -10
-3 -6 5 -10 19 -10 14 0 28 5 32 12 4 7 3 8 -4 4 -8 -5 -10 -2 -6 9 4 9 9 13
12 11 3 -3 11 2 18 12 10 13 15 14 25 5 9 -9 16 -10 26 -2 9 8 13 8 13 0 0 -6
7 -11 16 -11 9 0 12 5 8 13 -5 9 -4 9 6 0 8 -7 20 -9 35 -3 26 10 52 -11 39
-31 -5 -8 -3 -9 6 -4 10 6 12 4 7 -8 -4 -11 -2 -14 7 -11 8 3 17 1 20 -5 4 -6
13 -8 21 -5 8 4 13 9 11 13 -3 4 4 7 14 7 10 0 16 -6 13 -13 -5 -13 23 -59 34
-56 3 1 10 7 14 15 7 10 9 10 9 1 0 -7 5 -13 11 -13 5 0 7 5 3 11 -3 6 5 3 20
-6 26 -17 37 -32 14 -19 -10 5 -10 4 -1 -6 10 -11 10 -17 0 -29 -10 -12 -9
-13 3 -6 12 7 13 6 3 -7 -7 -8 -9 -18 -5 -23 4 -4 0 -5 -8 -3 -8 3 -23 1 -32
-4 -12 -5 -18 -5 -18 1 0 6 -7 8 -15 5 -10 -4 -15 0 -15 12 0 16 -2 17 -11 4
-9 -12 -10 -11 -6 7 3 15 0 22 -12 22 -9 0 -28 2 -43 4 -16 2 -28 0 -28 -6 0
-5 -7 -4 -15 3 -12 10 -15 10 -15 -1 0 -9 -3 -10 -8 -4 -9 12 -82 13 -82 1 0
-5 -7 -3 -15 4 -12 10 -15 10 -15 -1 0 -11 -2 -11 -10 1 -5 8 -10 11 -10 5 0
-5 -18 -10 -39 -10 -22 0 -37 3 -35 6 2 4 -3 12 -11 19 -8 7 -13 16 -10 20 3
5 1 11 -5 15 -5 3 -10 1 -10 -4 0 -6 -5 -11 -11 -11 -5 0 -8 4 -4 9 3 6 -4 8
-17 5 -57 -13 -78 -11 -95 10 l-18 21 24 -20 24 -20 -23 33 c-22 29 -39 45
-25 22 3 -5 1 -10 -4 -10 -6 0 -11 4 -11 9 0 11 -33 9 -41 -3 -4 -5 -14 5 -23
22 -9 17 -21 34 -27 38 -8 4 -9 3 -5 -4 4 -8 2 -10 -7 -6 -8 3 -17 14 -20 25
-3 10 -1 17 4 13 5 -3 9 0 9 6 0 7 7 10 15 6 8 -3 15 0 15 6 0 6 6 5 17 -3 14
-12 16 -12 9 1z m1906 0 c17 5 28 5 28 -1 0 -6 6 -7 13 -2 18 11 36 12 43 2 3
-5 10 -9 15 -9 6 0 8 4 4 9 -6 10 27 7 45 -4 6 -3 10 -1 10 5 0 7 5 6 14 -2
11 -11 11 -15 -3 -26 -9 -7 -11 -11 -5 -8 6 3 11 -1 11 -9 0 -8 -3 -13 -5 -10
-3 3 -12 -1 -20 -8 -13 -10 -14 -9 -7 2 5 10 4 12 -3 7 -7 -4 -12 -14 -12 -22
0 -9 -5 -12 -12 -8 -8 5 -9 2 -5 -9 7 -18 -13 -19 -25 -2 -5 6 -8 4 -8 -5 0
-13 -1 -13 -10 0 -6 10 -10 11 -10 3 0 -7 -7 -13 -15 -13 -8 0 -15 -6 -15 -14
0 -24 -54 -39 -77 -22 -9 5 -13 4 -13 -5 0 -11 -2 -11 -10 1 -9 13 -10 13 -10
0 0 -13 -1 -13 -10 0 -7 11 -10 11 -10 2 0 -7 -5 -10 -12 -6 -6 4 -8 3 -5 -3
4 -6 -2 -22 -13 -34 -11 -13 -19 -18 -20 -11 0 6 5 12 12 12 6 0 8 3 4 7 -4 5
-14 -1 -22 -11 -8 -11 -14 -14 -14 -8 0 9 -5 10 -18 3 -11 -6 -24 -6 -32 -1
-9 6 -17 5 -22 -3 -6 -9 -8 -9 -8 0 0 8 -9 9 -30 3 -37 -11 -40 -10 -62 1 -13
7 -18 6 -19 -3 0 -9 -2 -10 -5 -1 -4 8 -13 9 -36 1 -16 -6 -26 -13 -20 -17 5
-3 1 -14 -9 -25 -11 -11 -19 -14 -19 -7 0 8 -5 9 -17 2 -11 -6 -24 -6 -36 1
-13 6 -23 6 -33 -3 -11 -9 -14 -9 -14 0 0 7 -4 10 -9 7 -5 -3 -8 7 -7 23 1 17
-2 28 -6 25 -4 -3 -8 0 -8 5 0 6 5 11 12 11 6 0 8 3 5 7 -12 12 27 32 40 21 9
-7 13 -7 13 2 0 10 3 10 14 1 11 -9 16 -9 22 0 5 8 3 10 -7 5 -8 -4 -5 0 5 8
11 9 16 16 12 16 -5 0 -3 7 4 15 10 12 16 13 26 4 11 -9 14 -8 14 0 0 7 5 9
10 6 6 -4 7 -12 3 -18 -5 -8 -2 -8 9 0 8 7 18 10 22 6 4 -4 4 0 0 10 -3 10 -1
17 5 17 6 0 10 6 8 13 -1 7 6 11 17 9 12 -2 16 1 10 9 -5 8 -3 10 7 4 18 -12
49 -14 43 -3 -3 4 0 8 5 8 6 0 11 -4 11 -8 0 -10 56 -9 66 1 8 8 33 -16 27
-25 -2 -5 1 -8 7 -8 7 0 10 -6 7 -13 -4 -10 2 -13 19 -9 13 2 21 8 18 13 -3 5
0 9 5 9 6 0 11 7 11 16 0 8 4 13 9 9 12 -7 52 44 44 57 -4 7 0 7 12 0 11 -5
30 -6 47 -2z m-1372 -100 c0 -5 -2 -10 -4 -10 -3 0 -8 5 -11 10 -3 6 -1 10 4
10 6 0 11 -4 11 -10z"/>
<path d="M1405 2160 c3 -5 8 -10 11 -10 2 0 4 5 4 10 0 6 -5 10 -11 10 -5 0
-7 -4 -4 -10z"/>
<path d="M855 960 c-3 -6 1 -7 9 -4 18 7 21 14 7 14 -6 0 -13 -4 -16 -10z"/>
<path d="M1495 1900 c-3 -5 -1 -10 4 -10 6 0 11 5 11 10 0 6 -2 10 -4 10 -3 0
-8 -4 -11 -10z"/>
<path d="M949 1673 c-13 -16 -12 -17 4 -4 9 7 17 15 17 17 0 8 -8 3 -21 -13z"/>
<path d="M2435 600 c-3 -5 -1 -10 4 -10 6 0 11 5 11 10 0 6 -2 10 -4 10 -3 0
-8 -4 -11 -10z"/>
<path d="M29 303 c-1 -5 -1 -12 0 -16 1 -5 -3 -6 -8 -3 -5 4 -12 2 -16 -4 -3
-5 0 -10 7 -10 9 0 9 -3 -2 -10 -10 -6 436 -10 1268 -10 1214 0 1282 1 1282
18 0 9 -5 24 -10 32 -9 13 -11 13 -20 0 -6 -9 -13 -11 -17 -5 -12 15 -33 17
-33 3 0 -9 -3 -9 -9 1 -8 12 -12 12 -25 2 -13 -11 -16 -11 -16 0 0 11 -2 11
-10 -1 -9 -13 -10 -13 -10 0 0 13 -1 13 -10 0 -5 -8 -10 -10 -10 -4 0 9 -17
11 -63 5 -5 -1 -5 -7 -2 -13 4 -7 -1 -4 -10 7 -14 17 -17 18 -25 5 -7 -10 -13
-11 -17 -5 -9 12 -28 13 -39 3 -4 -5 -12 -8 -18 -8 -6 0 -4 5 4 10 9 6 10 10
3 10 -6 0 -15 -5 -19 -11 -4 -8 -9 -7 -16 2 -8 11 -11 11 -15 1 -4 -10 -8 -10
-21 0 -12 10 -14 10 -8 1 4 -7 2 -13 -3 -13 -6 0 -11 6 -11 13 0 9 -3 8 -9 -2
-7 -11 -10 -11 -15 0 -5 11 -7 11 -12 1 -5 -10 -9 -10 -20 -1 -11 9 -17 9 -28
0 -11 -9 -15 -9 -19 1 -4 10 -8 10 -16 -2 -10 -13 -11 -13 -11 0 0 13 -1 13
-10 0 -6 -9 -13 -11 -17 -5 -9 12 -33 13 -50 2 -8 -5 -13 -3 -13 3 0 8 -6 8
-20 0 -11 -6 -20 -8 -20 -4 0 3 -7 1 -15 -6 -13 -11 -14 -10 -10 2 4 9 0 15
-9 15 -8 0 -13 -4 -10 -9 3 -4 0 -8 -5 -8 -6 0 -11 5 -11 11 0 8 -5 7 -16 -2
-13 -10 -17 -10 -25 2 -7 11 -9 11 -9 0 0 -10 -3 -11 -13 -2 -8 6 -17 8 -21 4
-12 -12 -36 -12 -36 0 0 7 -5 5 -10 -3 -7 -11 -10 -11 -10 -2 0 10 -5 10 -20
2 -11 -6 -20 -8 -20 -4 0 3 -7 1 -15 -6 -13 -11 -14 -10 -10 2 4 9 0 15 -9 15
-8 0 -13 -4 -10 -9 3 -4 0 -8 -5 -8 -6 0 -11 5 -11 11 0 8 -5 7 -16 -2 -13
-10 -17 -10 -25 2 -7 11 -9 11 -9 0 0 -10 -3 -11 -13 -2 -8 6 -17 8 -21 4 -12
-12 -36 -12 -36 0 0 7 -5 5 -10 -3 -7 -11 -10 -11 -10 -2 0 10 -5 10 -20 2
-11 -6 -20 -8 -20 -4 0 3 -6 1 -14 -5 -11 -9 -16 -9 -22 0 -4 8 -3 9 4 5 7 -4
12 -3 12 3 0 11 -39 9 -58 -3 -7 -4 -12 -3 -12 2 0 10 -30 10 -46 0 -5 -4 -16
-3 -24 2 -9 5 -19 5 -27 -2 -7 -6 -13 -7 -13 -3 0 4 -7 2 -15 -5 -13 -11 -14
-10 -10 2 4 9 0 15 -9 15 -8 0 -13 -4 -10 -9 3 -4 0 -8 -5 -8 -6 0 -11 5 -11
11 0 8 -6 7 -17 -2 -15 -12 -16 -12 -8 1 7 12 6 13 -6 3 -9 -7 -20 -9 -29 -3
-9 5 -19 5 -27 -2 -7 -6 -13 -7 -13 -3 0 4 -7 2 -15 -5 -13 -11 -14 -10 -10 2
4 9 0 15 -9 15 -8 0 -13 -4 -10 -9 3 -4 0 -8 -5 -8 -6 0 -11 6 -11 13 0 8 -4
7 -10 -3 -7 -11 -10 -11 -10 -2 0 10 -5 10 -20 2 -11 -6 -20 -8 -20 -4 0 3 -7
1 -15 -6 -13 -11 -14 -10 -10 2 4 9 0 15 -9 15 -8 0 -13 -4 -10 -9 3 -4 0 -8
-5 -8 -6 0 -11 5 -11 11 0 8 -5 7 -16 -2 -13 -10 -17 -10 -25 2 -7 11 -9 11
-9 0 0 -10 -3 -11 -13 -2 -8 6 -17 8 -21 4 -12 -12 -36 -12 -36 0 0 7 -5 5
-10 -3 -7 -11 -10 -11 -10 -2 0 10 -5 10 -20 2 -11 -6 -20 -8 -20 -4 0 3 -7 1
-15 -6 -13 -11 -14 -10 -10 2 4 11 -4 14 -39 14 -24 -1 -42 -4 -40 -8 3 -5 1
-8 -5 -8 -5 0 -11 6 -14 13 -3 9 -7 9 -20 -2 -14 -11 -17 -11 -17 0 0 11 -2
11 -10 -1 -9 -13 -10 -13 -10 0 0 13 -1 13 -10 0 -5 -8 -10 -10 -10 -4 0 9
-17 11 -63 5 -5 -1 -5 -7 -2 -13 4 -7 -1 -4 -10 7 -14 17 -17 18 -25 5 -7 -10
-13 -11 -17 -5 -9 12 -28 13 -39 3 -4 -5 -12 -8 -18 -8 -6 0 -4 5 4 10 9 6 10
10 3 10 -6 0 -15 -5 -19 -11 -4 -8 -9 -7 -16 2 -8 11 -11 11 -15 1 -4 -10 -8
-10 -21 0 -12 10 -14 10 -8 1 4 -7 2 -13 -3 -13 -6 0 -11 6 -11 13 0 9 -3 8
-9 -2 -7 -11 -10 -11 -15 0 -5 11 -7 11 -12 1 -5 -10 -9 -10 -20 -1 -11 9 -17
9 -28 0 -11 -9 -15 -9 -20 1 -5 11 -7 11 -12 0 -5 -10 -9 -10 -22 0 -12 10
-14 10 -8 1 4 -7 2 -13 -3 -13 -6 0 -11 5 -11 10 0 12 -19 14 -21 3z"/>
</g>
</svg>
